# xmcd CD database file
#
# Track frame offsets:
#	150
#	21040
#	44370
#	69110
#	93800
#	113792
#	136395
#	156187
#	179492
#	199677
#	219107
#	244875
#
# Disc length: 3517 seconds
#
# Revision: 0
# Processed by: cddbd v1.4PL0 Copyright (c) Steve Scherf et al.
# Submitted via: CDex 1.50beta8
#
DISCID=9a0dbb0c
DTITLE=Keiko Matsui - IN A MIRROR
DYEAR=1900
DGENRE=Jazz
TTITLE0=Whisper From The Mirror
TTITLE1=Invisible Wing
TTITLE2=Tears Of The Ocean
TTITLE3=Between The Moons
TTITLE4=Beyond The Light
TTITLE5=Torches On The Earth
TTITLE6=Dimensions
TTITLE7=Savanna, No Problem
TTITLE8=Midnight Stone
TTITLE9=See You There
TTITLE10=Ever After (4Hand Piano, With Bob James)
TTITLE11=Trees
EXTD=
EXTT0=
EXTT1=
EXTT2=
EXTT3=
EXTT4=
EXTT5=
EXTT6=
EXTT7=
EXTT8=
EXTT9=
EXTT10=
EXTT11=
PLAYORDER=
